P3
13 13
255

255 255 000  192 192 255  000 000 255  000 000 192  192 000 192  000 192 192  192 192 000  000 192 000  000 255 255  255 255 000  255 000 255  192 000 192  192 255 192

255 192 192  000 000 192  000 255 255  000 192 192  192 255 255  192 192 255  000 000 255  255 000 255  192 000 192  255 000 255  192 000 192  192 255 192  255 192 192

000 192 192  255 255 000  000 255 000  255 000 000  255 255 192  255 192 255  255 192 192  192 192 255  000 000 255  000 000 192  255 255 192  255 192 192  192 192 000

192	255	255  255 255 192  255 192 255 	 0 192   0 	255	255	  0  255 192 192  192 192 255 	 0 192 192	192	255	255  255 000 000  255 255 000  192 192 255 	000	192 000

000	192 000	 000 255 000  192	0 192  255	 0 255 	255	192	255  000 000 000 	0 000 000	 0 000 000 	255	192	255  192 000 000 000  255 000    0	 0 255  255	255	000

192 192 255  000 000 255  192 192 000  255 192 255  000 000 000  000 000 000  192 255 192  000 000 000  000 000 000  255 192 192  255 000 000  	 0 000 192 	192 192 000

255 255	192	 255 000 000  192	0	0  192 192 255  000   0   0  192 255 192  192 255 192  192 255 192  000 000 000	 255 255 192  255 255 000  192 	 0 192  255	255	192

255 192	255  000 255 000  000 192 000  255 000 255 	000	000	000  000 000 000  000 255 255  000 000 000 	000	000	000  255 255 000  255 000 255  192 255 255  192 255 192

192	255 255	 255 255 000  000 000 192  192 000 000  255 255 192  000 000 000  000 000 192  000 000 000 	255 255 192	 192 192 000  000 255 255  192 192 255  192	255 255

000	255 255	 192 000 000  000 192 192  192 000 192 	255 192	255	 255 000 255  000 192 000  255 000 255  255 192	255	 192 192 255  000 192 192  192 255 192  255 255 192

192	192	255	 192 000 192  192 255 255  192 192 255	192	192	000	 255 255 000  000 192 000  192 255 255  192	255 192	 255 255 192  255 192 192  000 255 000  255 192	255

255 255 000	 192 192 000  000 192 192  255 000 000	255 192	192	 255 000 000  255 192 192  192 000 000 	255 000	000  000 255 000  000 192 192  192 000 192  255 000	255

000	255 255  000 192 192  255 000 000  255 192 192 	255	192 255	 192 000 192  255 000 255  255 255 000	000	192	000  192 192 000  255 255 000  000 255 255	000 192	000



